<svg width="68" height="71" viewBox="0 0 68 71" fill="none" xmlns="http://www.w3.org/2000/svg">
<path d="M37.0037 0H38.0497L39.7495 0.52302L41.3186 1.30755L43.0184 2.48435L44.7182 4.05341L45.6335 4.96869L46.5488 6.407L47.0718 7.71455L46.9411 8.76059L45.895 10.1989L45.1105 11.3757L45.895 11.2449H46.9411L47.3333 11.5064L47.2026 12.291L46.418 13.5985L45.1105 15.0368L43.6722 16.0829L43.4107 16.2136L41.5801 16.0829L40.5341 15.9521L38.8343 17.1289L36.8729 18.3057L34.6501 19.4825L32.558 20.267L30.5967 20.6593H26.9355L25.7587 20.3978L24.9742 28.7661L25.105 29.8122L26.5433 31.7735L27.9816 33.9963L29.4199 36.4807L30.3352 38.442L30.8582 40.2726L30.989 41.1878H31.3812L33.081 39.8803L36.4807 37.6575L39.488 35.9576L42.4954 34.3886L45.7643 33.081L49.1639 32.035L51.1252 31.6427H55.4401L57.663 32.035L59.6243 32.558L62.6317 33.9963L64.4622 35.3039L66.0313 36.7422L66.9466 37.6575L67.3389 38.3112V40.9263L66.9466 44.5875L66.1621 48.3794L65.3775 51.1252L64.7238 52.825L64.07 53.4788L62.8932 54.5249L61.3241 55.7017L58.9705 57.4015L56.7477 58.8398L52.9558 61.0626L50.8637 62.1087L47.5948 63.6777L44.326 64.9853L40.0111 66.4236L35.8269 67.4696L31.2505 68.2541L26.151 68.6464H23.0129L20.0055 69.4309L16.0829 70.6077L14.1215 71H12.814L10.8527 70.6077L4.05341 68.5157L1.96133 67.7311L0.915285 66.9466L0.26151 66.0313L0 65.116V63.0239L0.130755 60.9319L0.26151 53.8711L0.52302 50.4715L1.69982 45.5028L3.26888 40.2726L4.96869 35.0424L6.93002 29.8122L8.76059 25.3665L10.3296 21.8361L12.5525 17.3904L14.2523 14.5138L15.8214 12.1602L17.2597 10.3296L18.4365 9.41436L20.7901 7.97606L24.7127 6.01473L30.7274 3.39963L34.2578 1.69982L35.8269 0.653775L37.0037 0Z" fill="#C1E1C1"/>
<path d="M37.0038 2.61499H38.4421L38.9651 3.13801L40.0112 5.09934L41.5802 7.32217L42.757 8.89123L43.0185 9.67576L42.234 10.9833L41.8418 12.0294L41.188 11.3756L39.4882 8.1067L38.1806 5.62236L37.7883 4.96858L37.2653 4.83783V6.01462L37.9191 8.23746L39.3574 12.2909L39.2267 13.0754L38.5729 13.5984L37.9191 14.2522H37.5268L36.2193 11.2448L34.781 7.84519L34.5195 6.92991L34.1272 7.19142L33.7349 8.1067L33.6042 8.36821V9.2835L35.0425 13.9907L35.4348 15.2982L35.304 15.952L34.1272 16.998L32.4274 17.6518L30.8583 17.9133L29.1585 17.6518L27.5894 16.998L27.851 16.475L29.8123 15.1675L30.3353 14.7752L30.0738 13.9907L29.42 12.9446L28.1125 13.5984L26.9357 13.7292L26.1511 13.4677L25.6281 14.5137L24.5821 15.8213L23.4053 16.6058L21.444 17.3903L19.6134 17.7826L18.5673 17.9133H16.8675V18.3056L17.3906 18.5671L19.0904 20.1362L19.2211 20.6592L18.1751 23.0128L16.9983 26.2817L15.9522 30.0736L15.1677 33.8655L14.6447 37.5266L14.2524 41.8415L14.1217 44.0644V45.5027L15.6907 40.9262L16.8675 38.1804L17.9136 36.219L18.4366 35.5653L19.3519 35.4345L20.6594 36.219L21.5747 37.3958L21.967 38.9649V40.7955L21.444 43.1491L20.9209 44.7181L18.8289 49.033L17.5213 51.2559L15.1677 54.7863L13.8602 56.6168L12.1603 58.8397L11.6373 59.6242L13.7294 59.4935L16.3445 59.1012L19.0904 58.3167L21.0517 57.5321L23.7976 56.0938L25.6281 54.7863L27.0664 53.6095L28.7662 52.0404L30.2045 50.3406L30.7276 49.5561L31.3813 46.4179L31.9044 44.8489L32.9504 43.0183L34.5195 41.3185L35.9578 40.1417L38.0499 38.9649L40.4034 37.9189L45.1106 36.3498L46.9412 35.9575L48.7718 35.8268L50.7331 36.0883L52.3022 36.7421L53.7405 37.6574L55.3095 39.2264L56.2248 40.534L57.0093 41.8415L56.8786 42.3645L55.571 43.4106L52.9559 44.9796L50.0793 46.5487L46.5489 47.987L42.4955 49.2946L39.3574 50.0791L35.304 50.8636L32.4274 51.2559L34.6502 51.6481L37.2653 51.7789H41.5802L45.2414 51.5174L49.4255 51.1251L50.3408 50.9944V51.2559L49.2948 52.1712L47.8565 54.0017L47.2027 54.7863L46.1567 55.7016L44.5876 57.0091L42.3648 58.5782L39.4882 60.1472L36.8731 61.324L33.7349 62.3701L30.5968 63.1546L27.851 63.6776L24.4513 64.0699L22.49 64.2006H19.8749L15.9522 65.7697L13.2064 66.685L11.5066 66.9465L9.54525 66.5542L7.58392 65.7697L5.36109 64.5929L4.4458 63.5469L4.57656 62.7623L5.23033 61.0625L4.70731 52.4327V47.8562L5.23033 44.8489L6.40713 40.6647L7.97619 35.9575L10.4605 28.766L12.4219 22.7513L13.7294 19.7439L15.1677 16.998L16.9983 13.9907L18.6981 11.7678L19.8749 10.4603L24.5821 8.1067L28.6355 6.40689L30.8583 5.36085L33.0812 4.0533L35.1732 3.00726L37.0038 2.61499Z" fill="#A9CDA9"/>
</svg>
