<svg width="89" height="89" viewBox="0 0 89 89" fill="none" xmlns="http://www.w3.org/2000/svg">
<path d="M70.6799 63.7152C69.4247 59.0306 70.0159 54.0036 72.4947 49.8354C75.3477 45.0387 76.7418 39.5148 76.5065 33.9386C75.9036 18.8281 63.502 6.63165 48.3841 6.26639C44.5436 6.17143 40.7229 6.84419 37.1458 8.24522C33.5688 9.64625 30.3075 11.7473 27.5531 14.4253C24.7987 17.1033 22.6067 20.3042 21.1057 23.8404C19.6046 27.3767 18.8247 31.177 18.8116 35.0186H18.8089V35.1184L12.713 49.1126C12.4201 49.7849 12.3912 50.5428 12.6319 51.2354C12.8727 51.928 13.3655 52.5046 14.0122 52.8502L18.8088 55.4132V67.2658C18.8088 68.0767 18.9685 68.8797 19.2789 69.629C19.5892 70.3782 20.0441 71.059 20.6175 71.6324C21.191 72.2058 21.8718 72.6607 22.621 72.971C23.3702 73.2814 24.1733 73.4411 24.9842 73.4411H36.2854L38.0915 80.1813C38.2089 80.6194 38.4114 81.0301 38.6875 81.39C38.9636 81.7498 39.3079 82.0517 39.7006 82.2785C40.0934 82.5053 40.5271 82.6525 40.9767 82.7116C41.4264 82.7708 41.8834 82.7408 42.3214 82.6234L70.1715 75.161C70.6096 75.0436 71.0203 74.8411 71.3801 74.565C71.7399 74.2889 72.0419 73.9446 72.2686 73.5518C72.4954 73.159 72.6426 72.7254 72.7018 72.2757C72.7609 71.8261 72.731 71.3691 72.6135 70.931L70.6799 63.7152ZM61.9578 37.86L60.8873 38.9304L60.8693 38.9481L47.5647 52.2531L34.242 38.9304L33.1536 37.842C31.3869 36.0753 30.3944 33.6791 30.3944 31.1807C30.3944 28.6822 31.3869 26.286 33.1536 24.5193C34.9203 22.7526 37.3164 21.7601 39.8149 21.7601C42.3134 21.7601 44.7095 22.7526 46.4762 24.5193L47.5647 25.6078L48.6351 24.5373C49.5099 23.6625 50.5484 22.9686 51.6914 22.4952C52.8343 22.0218 54.0593 21.7781 55.2965 21.7781C56.5336 21.7781 57.7586 22.0218 58.9015 22.4952C60.0445 22.9686 61.083 23.6625 61.9578 24.5373C62.8325 25.4121 63.5265 26.4506 63.9999 27.5936C64.4733 28.7365 64.717 29.9615 64.717 31.1986C64.717 32.4358 64.4733 33.6608 63.9999 34.8037C63.5265 35.9467 62.8325 36.9852 61.9578 37.86Z" fill="#C1E1C1"/>
</svg>
