<svg width="92" height="92" viewBox="0 0 92 92" fill="none" xmlns="http://www.w3.org/2000/svg">
<path d="M70.4265 28.0798C70.4221 25.2711 69.5536 22.5318 67.9389 20.2337C66.3241 17.9355 64.0414 16.1899 61.4004 15.2337C58.7595 14.2775 55.8883 14.1571 53.1766 14.8888C50.4648 15.6205 48.0439 17.1688 46.2424 19.3236C44.4412 17.1685 42.0204 15.6198 39.3086 14.888C36.5969 14.1561 33.7257 14.2765 31.0847 15.2327C28.4437 16.189 26.161 17.9348 24.5465 20.2332C22.932 22.5315 22.0639 25.2711 22.0601 28.0798V28.3907C22.0601 30.693 22.589 32.9645 23.6059 35.03C24.6227 37.0955 26.1005 38.8999 27.9251 40.304L43.8004 52.5227C44.0507 52.7155 44.3234 52.8772 44.6126 53.0043V61.694C40.1744 57.6869 34.1369 57.3311 30.8827 57.4857C29.8114 57.5331 28.7967 57.98 28.0384 58.7383C27.2802 59.4965 26.8333 60.5112 26.7858 61.5826C26.6277 64.9211 27.0051 71.1886 31.3104 75.6539C34.4387 78.899 39.0172 80.5755 44.9253 80.642C45.0475 80.642 47.8003 80.642 48.0896 80.633C53.748 80.4767 58.1521 78.8038 61.187 75.6539C65.4995 71.1886 65.8679 64.9211 65.7097 61.5826C65.6627 60.5111 65.216 59.4962 64.4576 58.7378C63.6993 57.9795 62.6843 57.5327 61.6129 57.4857C58.348 57.3311 52.2889 57.6905 47.847 61.7263V52.9683C48.1147 52.8441 48.3673 52.6898 48.5999 52.5083L64.6694 39.9104C66.4606 38.5064 67.9097 36.714 68.9073 34.6684C69.9049 32.6227 70.425 30.3773 70.4283 28.1014V28.0798H70.4265ZM30.0076 61.7425C30.0215 61.4763 30.1335 61.2247 30.322 61.0362C30.5104 60.8477 30.7621 60.7357 31.0283 60.7218C33.844 60.5889 39.1142 60.88 42.7079 64.3443C45.0708 66.621 46.3951 69.9758 46.6611 74.3296C45.1116 72.0884 42.9131 70.3753 40.3612 69.4205L39.2687 72.725C39.4376 72.7843 42.7421 73.9486 44.415 77.3969C39.6802 77.2531 36.0505 75.9144 33.6337 73.4114C30.1729 69.823 29.8819 64.56 30.0076 61.7425ZM60.391 60.6967C60.7719 60.6967 61.1277 60.7075 61.4512 60.7218C61.717 60.7361 61.9682 60.8483 62.1563 61.0367C62.3444 61.2252 62.4562 61.4766 62.47 61.7425C62.6047 64.56 62.3119 69.8284 58.8493 73.4222C56.7505 75.6 53.7264 76.9063 49.8326 77.2872C49.9007 76.984 49.9368 76.6744 49.9404 76.3636C49.9835 72.504 49.3618 69.1905 48.0878 66.4521C48.5652 65.6825 49.1355 64.9746 49.7858 64.3443C52.9645 61.2735 57.4549 60.6967 60.3982 60.6967H60.391ZM63.0863 28.0888C63.0811 26.4077 62.4102 24.7971 61.2205 23.6094C60.0308 22.4217 58.419 21.7536 56.738 21.7512V18.6965C59.2278 18.7003 61.6149 19.69 63.377 21.4491C65.1391 23.2082 66.1329 25.5935 66.141 28.0834L63.0863 28.0888Z" fill="#C1E1C1"/>
</svg>
