<svg width="67" height="83" viewBox="0 0 67 83" fill="none" xmlns="http://www.w3.org/2000/svg">
<path d="M22.5367 51.8293H45.0733M33.805 40.561V63.0976M58.8307 30.9447C62.0721 34.7262 63.8538 39.5426 63.8538 44.5232V72.4878C63.8538 76.6367 60.4905 80 56.3416 80H11.2684C7.11955 80 3.75623 76.6367 3.75623 72.4878V44.5232C3.75623 39.5426 5.53791 34.7262 8.77926 30.9447C12.7432 26.3201 18.53 23.6585 24.6209 23.6585H42.9891C49.08 23.6585 54.8668 26.3201 58.8307 30.9447ZM20.6587 14.2683H46.9513C50.063 14.2683 52.5855 11.7458 52.5855 8.63415C52.5855 5.52249 50.063 3 46.9513 3H20.6587C17.547 3 15.0245 5.52249 15.0245 8.63415C15.0245 11.7458 17.547 14.2683 20.6587 14.2683Z" stroke="#A9CDA9" stroke-width="5.63415" stroke-linecap="round" stroke-linejoin="round"/>
</svg>
