<svg width="83" height="83" viewBox="0 0 83 83" fill="none" xmlns="http://www.w3.org/2000/svg">
<path d="M80 41.5C80 62.763 62.763 80 41.5 80C20.237 80 3 62.763 3 41.5C3 20.237 20.237 3 41.5 3C62.763 3 80 20.237 80 41.5Z" stroke="#A9CDA9" stroke-width="5.25" stroke-linecap="round" stroke-linejoin="round"/>
<path d="M45 34.5C45 40.299 40.299 45 34.5 45C28.701 45 24 40.299 24 34.5C24 28.701 28.701 24 34.5 24C40.299 24 45 28.701 45 34.5Z" stroke="#A9CDA9" stroke-width="5.25" stroke-linecap="round" stroke-linejoin="round"/>
<path d="M66 43.25C66 46.1495 63.6495 48.5 60.75 48.5C57.8505 48.5 55.5 46.1495 55.5 43.25C55.5 40.3505 57.8505 38 60.75 38C63.6495 38 66 40.3505 66 43.25Z" stroke="#A9CDA9" stroke-width="5.25" stroke-linecap="round" stroke-linejoin="round"/>
<path d="M48.5 60.75C48.5 63.6495 46.1495 66 43.25 66C40.3505 66 38 63.6495 38 60.75C38 57.8505 40.3505 55.5 43.25 55.5C46.1495 55.5 48.5 57.8505 48.5 60.75Z" stroke="#A9CDA9" stroke-width="5.25" stroke-linecap="round" stroke-linejoin="round"/>
</svg>
