<svg width="75" height="75" viewBox="0 0 75 75" fill="none" xmlns="http://www.w3.org/2000/svg">
<g clip-path="url(#clip0_526_1125)">
<path d="M40.625 6.25L40.6813 6.25312L40.7313 6.25625L40.9907 6.27187L41.025 6.27813H41.0594L41.1782 6.30625L41.3407 6.33125L41.3907 6.35L41.425 6.35312L41.5157 6.3875L41.6782 6.43125L41.7375 6.45937L41.7844 6.47188L41.8719 6.51563L41.9969 6.56875L42.0625 6.60625L42.1313 6.6375L42.2032 6.68437L42.3 6.7375L42.4063 6.8125L42.4625 6.84687L42.5032 6.88438L42.5782 6.9375L42.6969 7.04375L42.7657 7.09687L42.7907 7.12812L42.8344 7.16562L42.9469 7.29375L43.0282 7.37813L43.0469 7.40625C43.4219 7.86562 43.6594 8.4125 43.7282 9.00937L43.7313 9.04687L43.7375 9.175L43.75 9.375V28.125H59.375C59.9227 28.1249 60.4609 28.2687 60.9355 28.542C61.4101 28.8154 61.8045 29.2087 62.0793 29.6825C62.354 30.1563 62.4994 30.694 62.5008 31.2417C62.5023 31.7894 62.3598 32.3279 62.0875 32.8031L61.9001 33.0875L36.9 67.4625C35.125 69.9094 31.25 68.65 31.25 65.625V46.875H15.625C15.0773 46.8751 14.5392 46.7313 14.0646 46.458C13.59 46.1846 13.1956 45.7913 12.9208 45.3175C12.6461 44.8437 12.5007 44.306 12.4993 43.7583C12.4978 43.2106 12.6403 42.6721 12.9125 42.1969L13.1 41.9125L38.1 7.5375L38.1313 7.49687L38.1875 7.42188L38.2907 7.30312L38.3469 7.23438L38.375 7.20937L38.4157 7.16562L38.5407 7.05312L38.6282 6.97187L38.6532 6.95312C39.0194 6.65338 39.449 6.44074 39.9094 6.33125L39.9438 6.32813L40.0282 6.3125L40.2594 6.27187L40.2938 6.26875L40.4219 6.2625L40.625 6.25Z" fill="#2F3234"/>
</g>
<defs>
<clipPath id="clip0_526_1125">
<rect width="75" height="75" fill="white"/>
</clipPath>
</defs>
</svg>
