<svg width="68" height="68" viewBox="0 0 68 68" fill="none" xmlns="http://www.w3.org/2000/svg">
<g clip-path="url(#clip0_526_1129)">
<path d="M34.8019 5.67784C41.2372 5.85704 47.4197 8.22249 52.3311 12.3846C57.2426 16.5468 60.5901 22.2575 61.8226 28.5763C63.055 34.895 62.0987 41.4451 59.1114 47.1479C56.124 52.8506 51.2836 57.366 45.3872 59.9503C45.0379 60.1033 44.6612 60.1841 44.2799 60.188C43.8986 60.1919 43.5204 60.1188 43.168 59.973C42.8156 59.8272 42.4962 59.6118 42.2291 59.3396C41.9619 59.0675 41.7524 58.7442 41.6132 58.3892L35.3997 42.5168C35.1471 41.8725 35.139 41.158 35.3771 40.5082C35.6151 39.8583 36.0827 39.3181 36.6917 38.9893C37.8017 38.3902 38.68 37.4379 39.1876 36.2832C39.6952 35.1285 39.803 33.8375 39.4941 32.6146C39.1851 31.3917 38.4769 30.3069 37.4818 29.5319C36.4866 28.7569 35.2614 28.3361 34 28.3361C32.7387 28.3361 31.5135 28.7569 30.5183 29.5319C29.5232 30.3069 28.815 31.3917 28.506 32.6146C28.1971 33.8375 28.3049 35.1285 28.8125 36.2832C29.3201 37.4379 30.1984 38.3902 31.3084 38.9893C31.9172 39.3175 32.385 39.8571 32.6235 40.5064C32.862 41.1556 32.8548 41.8697 32.6032 42.514L26.3897 58.3892C26.2508 58.7445 26.0415 59.068 25.7745 59.3405C25.5074 59.6129 25.1881 59.8287 24.8357 59.9747C24.4833 60.1208 24.105 60.1941 23.7235 60.1904C23.342 60.1867 22.9652 60.106 22.6157 59.9532C16.6547 57.3424 11.774 52.7592 8.7941 46.9739C5.81418 41.1886 4.91661 34.5538 6.25228 28.1846C7.58794 21.8155 11.0754 16.1002 16.1285 11.9995C21.1816 7.89874 27.4924 5.66246 34 5.66651L34.8019 5.67784Z" fill="#383C3E"/>
</g>
<defs>
<clipPath id="clip0_526_1129">
<rect width="68" height="68" fill="white"/>
</clipPath>
</defs>
</svg>
