<svg width="74" height="74" viewBox="0 0 74 74" fill="none" xmlns="http://www.w3.org/2000/svg">
<g clip-path="url(#clip0_519_914)">
<path d="M12.3334 15.4168C12.3334 14.5991 12.6582 13.8148 13.2365 13.2366C13.8147 12.6583 14.599 12.3335 15.4167 12.3335H27.75C28.5678 12.3335 29.352 12.6583 29.9303 13.2366C30.5085 13.8148 30.8334 14.5991 30.8334 15.4168V27.7502C30.8334 28.5679 30.5085 29.3522 29.9303 29.9304C29.352 30.5086 28.5678 30.8335 27.75 30.8335H15.4167C14.599 30.8335 13.8147 30.5086 13.2365 29.9304C12.6582 29.3522 12.3334 28.5679 12.3334 27.7502V15.4168Z" stroke="white" stroke-width="2" stroke-linecap="round" stroke-linejoin="round"/>
<path d="M12.3334 46.2498C12.3334 45.4321 12.6582 44.6478 13.2365 44.0696C13.8147 43.4914 14.599 43.1665 15.4167 43.1665H27.75C28.5678 43.1665 29.352 43.4914 29.9303 44.0696C30.5085 44.6478 30.8334 45.4321 30.8334 46.2498V58.5832C30.8334 59.4009 30.5085 60.1852 29.9303 60.7634C29.352 61.3417 28.5678 61.6665 27.75 61.6665H15.4167C14.599 61.6665 13.8147 61.3417 13.2365 60.7634C12.6582 60.1852 12.3334 59.4009 12.3334 58.5832V46.2498Z" stroke="white" stroke-width="2" stroke-linecap="round" stroke-linejoin="round"/>
<path d="M43.1666 46.2498C43.1666 45.4321 43.4915 44.6478 44.0697 44.0696C44.648 43.4914 45.4322 43.1665 46.25 43.1665H58.5833C59.401 43.1665 60.1853 43.4914 60.7635 44.0696C61.3418 44.6478 61.6666 45.4321 61.6666 46.2498V58.5832C61.6666 59.4009 61.3418 60.1852 60.7635 60.7634C60.1853 61.3417 59.401 61.6665 58.5833 61.6665H46.25C45.4322 61.6665 44.648 61.3417 44.0697 60.7634C43.4915 60.1852 43.1666 59.4009 43.1666 58.5832V46.2498Z" stroke="white" stroke-width="2" stroke-linecap="round" stroke-linejoin="round"/>
<path d="M43.1666 21.5835H61.6666" stroke="white" stroke-width="2" stroke-linecap="round" stroke-linejoin="round"/>
<path d="M52.4166 12.3335V30.8335" stroke="white" stroke-width="2" stroke-linecap="round" stroke-linejoin="round"/>
</g>
<defs>
<clipPath id="clip0_519_914">
<rect width="74" height="74" fill="white"/>
</clipPath>
</defs>
</svg>
