<svg width="74" height="74" viewBox="0 0 74 74" fill="none" xmlns="http://www.w3.org/2000/svg">
<g clip-path="url(#clip0_519_927)">
<path d="M43.1666 18.5L64.75 40.0833L52.4166 52.4167" stroke="white" stroke-width="2" stroke-linecap="round" stroke-linejoin="round"/>
<path d="M17.9697 56.0306C18.7794 56.8405 19.7408 57.4831 20.7988 57.9214C21.8569 58.3598 22.991 58.5854 24.1363 58.5854C25.2816 58.5854 26.4157 58.3598 27.4738 57.9214C28.5319 57.4831 29.4933 56.8405 30.303 56.0306L62.9432 23.3904C63.5161 22.8177 63.9705 22.1378 64.2806 21.3895C64.5906 20.6411 64.7502 19.839 64.7502 19.029C64.7502 18.219 64.5906 17.4169 64.2806 16.6686C63.9705 15.9202 63.5161 15.2403 62.9432 14.6676L59.3326 11.0571C58.7599 10.4842 58.08 10.0297 57.3317 9.71965C56.5833 9.40959 55.7812 9.25 54.9712 9.25C54.1612 9.25 53.3591 9.40959 52.6107 9.71965C51.8624 10.0297 51.1825 10.4842 50.6098 11.0571L17.9697 43.6972C17.1597 44.507 16.5172 45.4683 16.0788 46.5264C15.6404 47.5845 15.4148 48.7186 15.4148 49.8639C15.4148 51.0092 15.6404 52.1433 16.0788 53.2014C16.5172 54.2595 17.1597 55.2208 17.9697 56.0306Z" stroke="white" stroke-width="2" stroke-linecap="round" stroke-linejoin="round"/>
<path d="M12.3334 61.6667L17.7847 56.2153" stroke="white" stroke-width="2" stroke-linecap="round" stroke-linejoin="round"/>
</g>
<defs>
<clipPath id="clip0_519_927">
<rect width="74" height="74" fill="white"/>
</clipPath>
</defs>
</svg>
