<svg width="20" height="20" viewBox="0 0 20 20" fill="none" xmlns="http://www.w3.org/2000/svg">
<path d="M18.3337 13.492C18.3337 16.5253 16.5253 18.3337 13.492 18.3337H12.5003C12.2793 18.3337 12.0673 18.2459 11.9111 18.0896C11.7548 17.9333 11.667 17.7213 11.667 17.5003V12.692C11.667 12.5829 11.7097 12.4782 11.7861 12.4003C11.8624 12.3224 11.9663 12.2775 12.0753 12.2753L13.542 12.2503C13.5994 12.2464 13.654 12.224 13.6976 12.1864C13.7411 12.1489 13.7713 12.0982 13.7837 12.042L14.0753 10.4503C14.0814 10.4142 14.0795 10.3771 14.0697 10.3418C14.0599 10.3065 14.0425 10.2738 14.0186 10.2459C13.9948 10.2181 13.9651 10.1959 13.9317 10.1808C13.8983 10.1657 13.862 10.1581 13.8253 10.1587L12.0503 10.1837C11.9403 10.1842 11.8344 10.1418 11.7551 10.0656C11.6758 9.98938 11.6292 9.88527 11.6253 9.77532L11.592 7.73366C11.592 7.66735 11.6183 7.60377 11.6652 7.55688C11.7121 7.51 11.7757 7.48366 11.842 7.48366L13.842 7.45032C13.9083 7.45032 13.9719 7.42399 14.0188 7.3771C14.0657 7.33022 14.092 7.26663 14.092 7.20032L14.0587 5.20032C14.0587 5.13402 14.0323 5.07043 13.9854 5.02355C13.9385 4.97666 13.875 4.95033 13.8087 4.95033L11.5587 4.98366C11.2303 4.98908 10.9063 5.05914 10.6051 5.18981C10.3038 5.32049 10.0313 5.50923 9.80299 5.74525C9.5747 5.98128 9.39515 6.25996 9.27459 6.56539C9.15402 6.87082 9.09481 7.19701 9.10032 7.52532L9.14199 9.81699C9.1431 9.87171 9.13341 9.92611 9.11349 9.97709C9.09356 10.0281 9.06379 10.0746 9.02587 10.1141C8.98795 10.1536 8.94263 10.1852 8.89249 10.2071C8.84235 10.2291 8.78838 10.2409 8.73366 10.242L7.73366 10.2587C7.66735 10.2587 7.60377 10.285 7.55688 10.3319C7.51 10.3788 7.48366 10.4424 7.48366 10.5087L7.50866 12.092C7.50866 12.1583 7.535 12.2219 7.58188 12.2688C7.62877 12.3157 7.69235 12.342 7.75866 12.342L8.75866 12.3253C8.86867 12.3248 8.97456 12.3672 9.05389 12.4434C9.13322 12.5196 9.17976 12.6237 9.18366 12.7337L9.25866 17.4837C9.26087 17.5945 9.24096 17.7046 9.20007 17.8077C9.15919 17.9107 9.09816 18.0046 9.02055 18.0837C8.94295 18.1629 8.85033 18.2257 8.74812 18.2687C8.64592 18.3116 8.53618 18.3337 8.42532 18.3337H6.50866C3.47533 18.3337 1.66699 16.5253 1.66699 13.4837V6.50866C1.66699 3.47533 3.47533 1.66699 6.50866 1.66699H13.492C16.5253 1.66699 18.3337 3.47533 18.3337 6.50866V13.492Z" fill="#C1E1C1"/>
</svg>
