<svg width="39" height="39" viewBox="0 0 39 39" fill="none" xmlns="http://www.w3.org/2000/svg">
<path d="M0 8.08364C0 3.61917 3.61917 0 8.08364 0H30.9164C35.3808 0 39 3.61917 39 8.08364V30.9164C39 35.3808 35.3808 39 30.9164 39H8.08364C3.61917 39 0 35.3808 0 30.9164V8.08364Z" fill="#6D8B6D"/>
<path d="M15.7009 10.5569C12.8026 10.5569 10.4443 12.9166 10.4443 15.8156V23.3262C10.4443 26.2249 12.804 28.5836 15.7031 28.5836H23.2137C26.1124 28.5836 28.471 26.2239 28.471 23.3248V15.8135C28.471 12.9152 26.1113 10.5569 23.2123 10.5569H15.7009ZM24.8657 13.4412C25.2637 13.4412 25.5867 13.7642 25.5867 14.1622C25.5867 14.5602 25.2637 14.8833 24.8657 14.8833C24.4676 14.8833 24.1446 14.5602 24.1446 14.1622C24.1446 13.7642 24.4676 13.4412 24.8657 13.4412ZM19.4577 14.8833C22.0427 14.8833 24.1446 16.9852 24.1446 19.5702C24.1446 22.1552 22.0423 24.2572 19.4577 24.2572C16.8726 24.2572 14.7707 22.1549 14.7707 19.5702C14.7707 16.9856 16.8726 14.8833 19.4577 14.8833ZM19.4577 16.3254C17.6655 16.3254 16.2129 17.778 16.2129 19.5702C16.2129 21.3624 17.6655 22.815 19.4577 22.815C21.2499 22.815 22.7025 21.3624 22.7025 19.5702C22.7025 17.778 21.2499 16.3254 19.4577 16.3254Z" fill="white"/>
</svg>
