<svg width="20" height="20" viewBox="0 0 20 20" fill="none" xmlns="http://www.w3.org/2000/svg">
<g clip-path="url(#clip0_29_719)">
<path d="M13.492 1.66699H6.50866C3.47533 1.66699 1.66699 3.47533 1.66699 6.50866V13.4837C1.66699 16.5253 3.47533 18.3337 6.50866 18.3337H13.4837C16.517 18.3337 18.3253 16.5253 18.3253 13.492V6.50866C18.3337 3.47533 16.5253 1.66699 13.492 1.66699ZM10.0003 13.2337C9.36083 13.2337 8.7357 13.044 8.20398 12.6887C7.67226 12.3335 7.25784 11.8285 7.01311 11.2377C6.76839 10.6469 6.70436 9.99674 6.82912 9.36953C6.95388 8.74233 7.26182 8.1662 7.71401 7.71401C8.1662 7.26182 8.74233 6.95388 9.36953 6.82912C9.99674 6.70436 10.6469 6.76839 11.2377 7.01311C11.8285 7.25784 12.3335 7.67226 12.6887 8.20398C13.044 8.7357 13.2337 9.36083 13.2337 10.0003C13.2328 10.8576 12.8918 11.6795 12.2857 12.2857C11.6795 12.8918 10.8576 13.2328 10.0003 13.2337ZM14.9337 5.73366C14.8914 5.83461 14.8322 5.92761 14.7587 6.00866C14.6776 6.0822 14.5846 6.14138 14.4837 6.18366C14.3321 6.2486 14.1646 6.26663 14.0027 6.23544C13.8408 6.20425 13.6919 6.12526 13.5753 6.00866C13.5018 5.92761 13.4426 5.83461 13.4003 5.73366C13.3564 5.63387 13.3337 5.52603 13.3337 5.41699C13.3337 5.30796 13.3564 5.20012 13.4003 5.10033C13.4406 4.99834 13.5 4.905 13.5753 4.82533C13.6723 4.72925 13.7915 4.65848 13.9223 4.61925C14.053 4.58002 14.1914 4.57352 14.3253 4.60033C14.3805 4.60805 14.434 4.62495 14.4837 4.65033C14.5368 4.66854 14.5872 4.69376 14.6337 4.72533C14.6773 4.75609 14.7191 4.78948 14.7587 4.82533C14.834 4.905 14.8934 4.99834 14.9337 5.10033C14.9776 5.20012 15.0003 5.30796 15.0003 5.41699C15.0003 5.52603 14.9776 5.63387 14.9337 5.73366Z" fill="#C1E1C1"/>
</g>
<defs>
<clipPath id="clip0_29_719">
<rect width="20" height="20" fill="white"/>
</clipPath>
</defs>
</svg>
