<svg width="39" height="39" viewBox="0 0 39 39" fill="none" xmlns="http://www.w3.org/2000/svg">
<path d="M0 8.08364C0 3.61917 3.61917 0 8.08364 0H30.9164C35.3808 0 39 3.61917 39 8.08364V30.9164C39 35.3808 35.3808 39 30.9164 39H8.08364C3.61917 39 0 35.3808 0 30.9164V8.08364Z" fill="#6D8B6D"/>
<g clip-path="url(#clip0_8_5784)">
<path d="M24.2212 20.8984L24.7972 17.1466H21.197V14.712C21.197 13.6858 21.6997 12.6848 23.3123 12.6848H24.9488V9.49086C24.9488 9.49086 23.4639 9.23755 22.0437 9.23755C19.0791 9.23755 17.1414 11.0347 17.1414 14.2876V17.1473H13.8457V20.8991H17.1414V29.9691H21.197V20.8991L24.2212 20.8984Z" fill="white"/>
</g>
<defs>
<clipPath id="clip0_8_5784">
<rect width="20.7316" height="20.7316" fill="white" transform="translate(9.03125 9.23682)"/>
</clipPath>
</defs>
</svg>
