<svg width="39" height="39" viewBox="0 0 39 39" fill="none" xmlns="http://www.w3.org/2000/svg">
<path d="M0 8.08364C0 3.61917 3.61917 0 8.08364 0H30.9164C35.3808 0 39 3.61917 39 8.08364V30.9164C39 35.3808 35.3808 39 30.9164 39H8.08364C3.61917 39 0 35.3808 0 30.9164V8.08364Z" fill="#6D8B6D"/>
<g clip-path="url(#clip0_8_5785)">
<path fill-rule="evenodd" clip-rule="evenodd" d="M10.1006 11.6883C10.1006 11.2672 10.2679 10.8634 10.5656 10.5656C10.8634 10.2679 11.2672 10.1006 11.6883 10.1006H27.5151C27.7238 10.1002 27.9305 10.1411 28.1234 10.2207C28.3162 10.3004 28.4915 10.4173 28.6392 10.5647C28.7868 10.7122 28.9039 10.8874 28.9837 11.0802C29.0636 11.273 29.1046 11.4796 29.1045 11.6883V27.5151C29.1048 27.7238 29.0638 27.9305 28.9841 28.1234C28.9044 28.3163 28.7874 28.4916 28.6398 28.6392C28.4923 28.7868 28.3171 28.9039 28.1242 28.9838C27.9314 29.0636 27.7247 29.1047 27.516 29.1045H11.6883C11.4797 29.1045 11.2732 29.0634 11.0805 28.9836C10.8878 28.9038 10.7127 28.7867 10.5653 28.6392C10.4179 28.4917 10.3009 28.3166 10.2212 28.1238C10.1415 27.9311 10.1005 27.7246 10.1006 27.516V11.6883ZM17.6227 17.3463H20.196V18.6385C20.5674 17.8957 21.5176 17.2271 22.9455 17.2271C25.683 17.2271 26.3317 18.7068 26.3317 21.4218V26.4509H23.5614V22.0403C23.5614 20.494 23.19 19.6216 22.2467 19.6216C20.938 19.6216 20.3938 20.5623 20.3938 22.0403V26.4509H17.6227V17.3463ZM12.8717 26.3326H15.6428V17.2271H12.8717V26.3317V26.3326ZM16.0393 14.2573C16.0445 14.4945 16.0023 14.7305 15.9151 14.9512C15.828 15.1719 15.6976 15.373 15.5316 15.5427C15.3656 15.7123 15.1675 15.8471 14.9487 15.9391C14.73 16.0312 14.495 16.0786 14.2577 16.0786C14.0204 16.0786 13.7854 16.0312 13.5667 15.9391C13.3479 15.8471 13.1498 15.7123 12.9838 15.5427C12.8178 15.373 12.6874 15.1719 12.6003 14.9512C12.5131 14.7305 12.4709 14.4945 12.4761 14.2573C12.4863 13.7915 12.6785 13.3484 13.0115 13.0226C13.3445 12.6969 13.7919 12.5145 14.2577 12.5145C14.7235 12.5145 15.1709 12.6969 15.5039 13.0226C15.8369 13.3484 16.0291 13.7915 16.0393 14.2573Z" fill="white"/>
</g>
<defs>
<clipPath id="clip0_8_5785">
<rect width="20.7316" height="20.7316" fill="white" transform="translate(9.23633 9.23682)"/>
</clipPath>
</defs>
</svg>
