<svg width="39" height="39" viewBox="0 0 39 39" fill="none" xmlns="http://www.w3.org/2000/svg">
<path d="M0 8.08364C0 3.61917 3.61917 0 8.08364 0H30.9164C35.3808 0 39 3.61917 39 8.08364V30.9164C39 35.3808 35.3808 39 30.9164 39H8.08364C3.61917 39 0 35.3808 0 30.9164V8.08364Z" fill="#6D8B6D"/>
<g clip-path="url(#clip0_8_5783)">
<path d="M29.3941 13.9121C28.6728 14.2317 27.8979 14.4477 27.0834 14.5453C27.9239 14.0423 28.5527 13.2508 28.8525 12.3184C28.0628 12.7874 27.1986 13.1176 26.2973 13.2945C25.6912 12.6473 24.8885 12.2184 24.0136 12.0743C23.1388 11.9302 22.2409 12.0789 21.4593 12.4974C20.6776 12.9159 20.056 13.5807 19.691 14.3887C19.3259 15.1966 19.2378 16.1025 19.4403 16.9657C17.8403 16.8853 16.275 16.4695 14.8461 15.745C13.4171 15.0206 12.1565 14.0038 11.146 12.7606C10.8004 13.3567 10.6018 14.0477 10.6018 14.7837C10.6014 15.4462 10.7645 16.0986 11.0768 16.683C11.389 17.2673 11.8406 17.7656 12.3916 18.1336C11.7526 18.1132 11.1277 17.9406 10.5689 17.63V17.6818C10.5689 18.611 10.8903 19.5117 11.4787 20.2309C12.0671 20.9501 12.8862 21.4436 13.797 21.6277C13.2043 21.7881 12.5828 21.8118 11.9795 21.6968C12.2365 22.4964 12.7371 23.1955 13.4112 23.6965C14.0853 24.1974 14.8992 24.475 15.7389 24.4904C14.3134 25.6094 12.553 26.2164 10.7408 26.2137C10.4198 26.2138 10.0991 26.195 9.78027 26.1575C11.6197 27.3403 13.761 27.968 15.9479 27.9655C23.3508 27.9655 27.3978 21.8341 27.3978 16.5165C27.3978 16.3437 27.3935 16.1692 27.3857 15.9965C28.1729 15.4272 28.8524 14.7223 29.3923 13.9147L29.3941 13.9121Z" fill="white"/>
</g>
<defs>
<clipPath id="clip0_8_5783">
<rect width="20.7316" height="20.7316" fill="white" transform="translate(8.9707 9.64746)"/>
</clipPath>
</defs>
</svg>
