<svg width="20" height="20" viewBox="0 0 20 20" fill="none" xmlns="http://www.w3.org/2000/svg">
<g clip-path="url(#clip0_29_729)">
<path d="M13.4828 18.3332H6.50871C3.47704 18.3332 1.66699 16.5199 1.66699 13.4832V6.50822C1.66699 3.47655 3.47704 1.6665 6.50871 1.6665H13.4919C14.1408 1.63341 14.7898 1.72998 15.4009 1.95062C16.012 2.17126 16.573 2.51152 17.0511 2.95149C17.4892 3.42989 17.8276 3.99079 18.0464 4.60148C18.2652 5.21217 18.36 5.86045 18.3253 6.50822V13.4915C18.3253 16.5231 16.5153 18.3332 13.4828 18.3332ZM5.00114 13.5057C5.99568 14.1442 7.15261 14.4837 8.33447 14.484H8.35034C9.21999 14.504 10.0834 14.3332 10.8798 13.9835C11.6763 13.6338 12.3866 13.1137 12.9603 12.4599C13.9796 11.3 14.5477 9.81221 14.5611 8.26817C14.5611 8.17567 14.5612 8.07899 14.5546 7.98649C14.9829 7.67749 15.352 7.29386 15.6444 6.85398C15.2459 7.03149 14.8229 7.1475 14.3896 7.19812C14.8454 6.92512 15.1866 6.49613 15.3503 5.99064C14.9209 6.24484 14.4514 6.42406 13.9619 6.52063C13.7581 6.30226 13.5114 6.12842 13.2372 6.00997C12.963 5.89151 12.6674 5.83107 12.3687 5.83235C11.8111 5.83112 11.2742 6.04379 10.8687 6.42653C10.5911 6.68878 10.3867 7.01881 10.2758 7.38417C10.1649 7.74954 10.1512 8.13759 10.2361 8.50986C9.36807 8.46556 8.51902 8.23949 7.74385 7.84631C6.96869 7.45313 6.28475 6.90158 5.73621 6.22735C5.45818 6.70863 5.37331 7.27748 5.49878 7.81895C5.62424 8.36041 5.9507 8.83407 6.41207 9.14402C6.06467 9.13286 5.72478 9.03888 5.42106 8.86987V8.89734C5.42237 9.40102 5.59715 9.88884 5.91585 10.2789C6.23455 10.6689 6.67783 10.9373 7.17114 11.039C6.98428 11.0899 6.79149 11.1157 6.59782 11.1157C6.45935 11.1156 6.32132 11.1023 6.18542 11.0757C6.32489 11.5098 6.59647 11.8895 6.9624 12.1616C7.32834 12.4337 7.77031 12.5847 8.22624 12.5932C7.45339 13.1992 6.50001 13.5292 5.5179 13.5307H5.51282C5.34165 13.5322 5.17135 13.5239 5.00114 13.5057Z" fill="#C1E1C1"/>
</g>
<defs>
<clipPath id="clip0_29_729">
<rect width="20" height="20" fill="white"/>
</clipPath>
</defs>
</svg>
