<svg width="19" height="18" viewBox="0 0 19 18" fill="none" xmlns="http://www.w3.org/2000/svg">
<path d="M16.7933 8.14394C17.0839 8.14394 17.3149 7.91295 17.3149 7.62234V6.92936C17.3149 3.8743 16.3835 2.94287 13.3284 2.94287H6.3986C3.34353 2.94287 2.41211 3.8743 2.41211 6.92936V7.27958C2.41211 7.57018 2.6431 7.80118 2.93371 7.80118C3.60433 7.80118 4.14828 8.34513 4.14828 9.01575C4.14828 9.68638 3.60433 10.2229 2.93371 10.2229C2.6431 10.2229 2.41211 10.4539 2.41211 10.7445V11.0947C2.41211 14.1498 3.34353 15.0812 6.3986 15.0812H13.3284C16.3835 15.0812 17.3149 14.1498 17.3149 11.0947C17.3149 10.8041 17.0839 10.5731 16.7933 10.5731C16.1227 10.5731 15.5787 10.0291 15.5787 9.35852C15.5787 8.68789 16.1227 8.14394 16.7933 8.14394ZM7.62808 6.68347C8.03791 6.68347 8.37322 7.01878 8.37322 7.42861C8.37322 7.83843 8.04536 8.17375 7.62808 8.17375C7.21826 8.17375 6.88294 7.83843 6.88294 7.42861C6.88294 7.01878 7.2108 6.68347 7.62808 6.68347ZM12.0989 11.8994C11.6816 11.8994 11.3463 11.5641 11.3463 11.1543C11.3463 10.7445 11.6816 10.4092 12.0915 10.4092C12.5013 10.4092 12.8366 10.7445 12.8366 11.1543C12.8366 11.5641 12.5162 11.8994 12.0989 11.8994ZM12.7695 7.13055L7.75476 12.1453C7.64298 12.2571 7.50141 12.3093 7.35983 12.3093C7.21826 12.3093 7.07668 12.2571 6.96491 12.1453C6.74882 11.9292 6.74882 11.5716 6.96491 11.3555L11.9797 6.3407C12.1958 6.12461 12.5534 6.12461 12.7695 6.3407C12.9856 6.55679 12.9856 6.91446 12.7695 7.13055Z" fill="#5D5D5D"/>
</svg>
